<mxfile host="app.diagrams.net" modified="2023-08-14T03:27:53.093Z" agent="Mozilla/5.0 (Windows NT 10.0; Win64; x64) AppleWebKit/537.36 (KHTML, like Gecko) Chrome/115.0.0.0 Safari/537.36" version="21.1.4" etag="kUEJJd9k_mCIkPBUdZxc" type="github">
  <diagram name="Halaman-1" id="0ZWLRYvD2q3afCyFqaIV">
    <mxGraphModel>
      <root>
        <mxCell id="0" />
        <mxCell id="1" parent="0" />
      </root>
    </mxGraphModel>
  </diagram>
</mxfile>
